<svg xmlns="http://www.w3.org/2000/svg" id="hbabcefg" class=" logo" preserveAspectRatio="xMidYMid meet" viewBox="0 0 237 237">
    <defs id="SvgjsDefs1023"/>
    <g id="SvgjsG1024" fill="#093505" featurekey="root" transform="matrix(1,0,0,1,NaN,NaN)"/>
    <g id="SvgjsG1025" fill="#58af2d" featurekey="container1" transform="matrix(4.74,0,0,4.74,0,0)">
        <circle cx="25" cy="25" r="25"/>
    </g>
    <g id="SvgjsG1026" fill="#093505" featurekey="text1" transform="matrix(3.3333333333333335,0,0,3.3333333333333335,35.33333444595337,56.33333269755045)">
        <path d="M6.64 13.42 c2.36 0 5.18 1.8 5.18 5.38 c0 3.64 -2.82 5.4 -5.18 5.4 c-1.88 0 -3.12 -1.08 -3.38 -1.92 l0 5.52 l-2.16 0 l0 -6.34 l0 -7.86 l2.16 0 l0 1.62 c0.26 -0.68 1.5 -1.8 3.38 -1.8 z M6.36 22.28 c1.62 0 3.36 -1.16 3.36 -3.48 c0 -2.3 -1.74 -3.46 -3.36 -3.46 s-3.2 1.14 -3.2 3.46 c0 2.34 1.58 3.48 3.2 3.48 z M18.4 13.42 c1.88 0 3.12 1.12 3.38 1.8 l0 -1.62 l2.16 0 l0 10.4 l-2.16 0 l0 -1.72 c-0.26 0.84 -1.5 1.92 -3.38 1.92 c-2.36 0 -5.18 -1.76 -5.18 -5.4 c0 -3.58 2.82 -5.38 5.18 -5.38 z M18.68 15.34 c-1.62 0 -3.36 1.16 -3.36 3.46 c0 2.32 1.74 3.48 3.36 3.48 s3.2 -1.14 3.2 -3.48 c0 -2.32 -1.58 -3.46 -3.2 -3.46 z M32.04 13.44 c0.22 0 0.42 0 0.62 0.04 l0 2.06 c-0.2 -0.04 -0.4 -0.04 -0.56 -0.04 c-1.96 0 -3.56 1.4 -3.8 3.6 l0 4.9 l-2.16 0 l0 -10.4 l2.16 0 l0 2.66 c0.44 -1.54 1.78 -2.82 3.74 -2.82 z M48.56 17 c0 2.1 -0.84 3.88 -2.14 5.14 l1.46 1.86 l-2.6 0 l-0.52 -0.66 c-1.02 0.56 -2.2 0.86 -3.4 0.86 c-3.76 0 -7.2 -2.96 -7.2 -7.2 s3.44 -7.2 7.2 -7.2 s7.2 2.96 7.2 7.2 z M41.36 22.12 c0.72 0 1.44 -0.16 2.08 -0.48 l-2.92 -3.72 l2.6 0 l1.94 2.48 c0.74 -0.88 1.22 -2.06 1.22 -3.4 c0 -3 -2.34 -5.12 -4.92 -5.12 s-4.92 2.12 -4.92 5.12 s2.34 5.12 4.92 5.12 z"/>
    </g>
</svg>
